<mxfile host="app.diagrams.net" modified="2023-02-16T10:54:14.526Z" agent="5.0 (Windows NT 10.0; Win64; x64) AppleWebKit/537.36 (KHTML, like Gecko) Chrome/110.0.0.0 Safari/537.36 Edg/110.0.1587.41" etag="N23Zg8uh6okmHjgOau1d" version="20.8.20" type="github">
  <diagram id="C5RBs43oDa-KdzZeNtuy" name="Page-1">
    <mxGraphModel dx="1434" dy="796" grid="1" gridSize="10" guides="1" tooltips="1" connect="1" arrows="1" fold="1" page="1" pageScale="1" pageWidth="827" pageHeight="1169" math="0" shadow="0">
      <root>
        <mxCell id="WIyWlLk6GJQsqaUBKTNV-0" />
        <mxCell id="WIyWlLk6GJQsqaUBKTNV-1" parent="WIyWlLk6GJQsqaUBKTNV-0" />
        <mxCell id="oSDlVFUqQBZmsmdfuagh-22" value="" style="edgeStyle=orthogonalEdgeStyle;rounded=0;orthogonalLoop=1;jettySize=auto;html=1;" edge="1" parent="WIyWlLk6GJQsqaUBKTNV-1" source="oSDlVFUqQBZmsmdfuagh-19" target="oSDlVFUqQBZmsmdfuagh-21">
          <mxGeometry relative="1" as="geometry" />
        </mxCell>
        <mxCell id="oSDlVFUqQBZmsmdfuagh-19" value="START" style="ellipse;whiteSpace=wrap;html=1;" vertex="1" parent="WIyWlLk6GJQsqaUBKTNV-1">
          <mxGeometry x="280" y="40" width="120" height="80" as="geometry" />
        </mxCell>
        <mxCell id="oSDlVFUqQBZmsmdfuagh-20" value="KONIEC" style="ellipse;whiteSpace=wrap;html=1;" vertex="1" parent="WIyWlLk6GJQsqaUBKTNV-1">
          <mxGeometry x="280" y="555" width="120" height="80" as="geometry" />
        </mxCell>
        <mxCell id="oSDlVFUqQBZmsmdfuagh-24" value="" style="edgeStyle=orthogonalEdgeStyle;rounded=0;orthogonalLoop=1;jettySize=auto;html=1;" edge="1" parent="WIyWlLk6GJQsqaUBKTNV-1" source="oSDlVFUqQBZmsmdfuagh-21" target="oSDlVFUqQBZmsmdfuagh-23">
          <mxGeometry relative="1" as="geometry" />
        </mxCell>
        <mxCell id="oSDlVFUqQBZmsmdfuagh-21" value="podaj a&lt;br&gt;i = 0&lt;br&gt;wynik = []" style="rounded=0;whiteSpace=wrap;html=1;" vertex="1" parent="WIyWlLk6GJQsqaUBKTNV-1">
          <mxGeometry x="280" y="160" width="120" height="60" as="geometry" />
        </mxCell>
        <mxCell id="oSDlVFUqQBZmsmdfuagh-28" value="" style="edgeStyle=orthogonalEdgeStyle;rounded=0;orthogonalLoop=1;jettySize=auto;html=1;" edge="1" parent="WIyWlLk6GJQsqaUBKTNV-1" source="oSDlVFUqQBZmsmdfuagh-23" target="oSDlVFUqQBZmsmdfuagh-27">
          <mxGeometry relative="1" as="geometry" />
        </mxCell>
        <mxCell id="oSDlVFUqQBZmsmdfuagh-36" value="" style="edgeStyle=orthogonalEdgeStyle;rounded=0;orthogonalLoop=1;jettySize=auto;html=1;" edge="1" parent="WIyWlLk6GJQsqaUBKTNV-1" source="oSDlVFUqQBZmsmdfuagh-23" target="oSDlVFUqQBZmsmdfuagh-35">
          <mxGeometry relative="1" as="geometry" />
        </mxCell>
        <mxCell id="oSDlVFUqQBZmsmdfuagh-23" value="i&amp;lt;a.długość" style="rhombus;whiteSpace=wrap;html=1;" vertex="1" parent="WIyWlLk6GJQsqaUBKTNV-1">
          <mxGeometry x="300" y="330" width="80" height="80" as="geometry" />
        </mxCell>
        <mxCell id="oSDlVFUqQBZmsmdfuagh-29" value="" style="edgeStyle=orthogonalEdgeStyle;rounded=0;orthogonalLoop=1;jettySize=auto;html=1;" edge="1" parent="WIyWlLk6GJQsqaUBKTNV-1" source="oSDlVFUqQBZmsmdfuagh-27" target="oSDlVFUqQBZmsmdfuagh-20">
          <mxGeometry relative="1" as="geometry" />
        </mxCell>
        <mxCell id="oSDlVFUqQBZmsmdfuagh-27" value="Wyświetl wynik" style="whiteSpace=wrap;html=1;" vertex="1" parent="WIyWlLk6GJQsqaUBKTNV-1">
          <mxGeometry x="280" y="450" width="120" height="60" as="geometry" />
        </mxCell>
        <mxCell id="oSDlVFUqQBZmsmdfuagh-47" style="edgeStyle=orthogonalEdgeStyle;rounded=0;orthogonalLoop=1;jettySize=auto;html=1;exitX=0;exitY=0.5;exitDx=0;exitDy=0;" edge="1" parent="WIyWlLk6GJQsqaUBKTNV-1" source="oSDlVFUqQBZmsmdfuagh-33">
          <mxGeometry relative="1" as="geometry">
            <mxPoint x="340" y="270" as="targetPoint" />
          </mxGeometry>
        </mxCell>
        <mxCell id="oSDlVFUqQBZmsmdfuagh-33" value="i = i+1" style="rounded=0;whiteSpace=wrap;html=1;" vertex="1" parent="WIyWlLk6GJQsqaUBKTNV-1">
          <mxGeometry x="380" y="240" width="120" height="60" as="geometry" />
        </mxCell>
        <mxCell id="oSDlVFUqQBZmsmdfuagh-45" style="edgeStyle=orthogonalEdgeStyle;rounded=0;orthogonalLoop=1;jettySize=auto;html=1;exitX=1;exitY=0.5;exitDx=0;exitDy=0;entryX=1;entryY=0.5;entryDx=0;entryDy=0;" edge="1" parent="WIyWlLk6GJQsqaUBKTNV-1" source="oSDlVFUqQBZmsmdfuagh-35" target="oSDlVFUqQBZmsmdfuagh-39">
          <mxGeometry relative="1" as="geometry">
            <Array as="points">
              <mxPoint x="740" y="370" />
              <mxPoint x="740" y="150" />
            </Array>
          </mxGeometry>
        </mxCell>
        <mxCell id="oSDlVFUqQBZmsmdfuagh-46" style="edgeStyle=orthogonalEdgeStyle;rounded=0;orthogonalLoop=1;jettySize=auto;html=1;exitX=0.5;exitY=0;exitDx=0;exitDy=0;entryX=0.5;entryY=1;entryDx=0;entryDy=0;" edge="1" parent="WIyWlLk6GJQsqaUBKTNV-1" source="oSDlVFUqQBZmsmdfuagh-35" target="oSDlVFUqQBZmsmdfuagh-42">
          <mxGeometry relative="1" as="geometry" />
        </mxCell>
        <mxCell id="oSDlVFUqQBZmsmdfuagh-35" value="a=a" style="rhombus;whiteSpace=wrap;html=1;" vertex="1" parent="WIyWlLk6GJQsqaUBKTNV-1">
          <mxGeometry x="581" y="330" width="80" height="80" as="geometry" />
        </mxCell>
        <mxCell id="oSDlVFUqQBZmsmdfuagh-43" style="edgeStyle=orthogonalEdgeStyle;rounded=0;orthogonalLoop=1;jettySize=auto;html=1;exitX=0;exitY=0.5;exitDx=0;exitDy=0;entryX=0.5;entryY=0;entryDx=0;entryDy=0;" edge="1" parent="WIyWlLk6GJQsqaUBKTNV-1" source="oSDlVFUqQBZmsmdfuagh-39" target="oSDlVFUqQBZmsmdfuagh-33">
          <mxGeometry relative="1" as="geometry" />
        </mxCell>
        <mxCell id="oSDlVFUqQBZmsmdfuagh-39" value="wynik [a[i]] = 1" style="rounded=0;whiteSpace=wrap;html=1;" vertex="1" parent="WIyWlLk6GJQsqaUBKTNV-1">
          <mxGeometry x="541" y="120" width="120" height="60" as="geometry" />
        </mxCell>
        <mxCell id="oSDlVFUqQBZmsmdfuagh-48" value="" style="edgeStyle=orthogonalEdgeStyle;rounded=0;orthogonalLoop=1;jettySize=auto;html=1;" edge="1" parent="WIyWlLk6GJQsqaUBKTNV-1" source="oSDlVFUqQBZmsmdfuagh-42" target="oSDlVFUqQBZmsmdfuagh-33">
          <mxGeometry relative="1" as="geometry" />
        </mxCell>
        <mxCell id="oSDlVFUqQBZmsmdfuagh-42" value="wynik [a[i]] = wynik [a[i]]&amp;nbsp;+1" style="rounded=0;whiteSpace=wrap;html=1;" vertex="1" parent="WIyWlLk6GJQsqaUBKTNV-1">
          <mxGeometry x="541" y="240" width="160" height="60" as="geometry" />
        </mxCell>
        <mxCell id="oSDlVFUqQBZmsmdfuagh-49" value="TAK" style="text;html=1;strokeColor=none;fillColor=none;align=center;verticalAlign=middle;whiteSpace=wrap;rounded=0;" vertex="1" parent="WIyWlLk6GJQsqaUBKTNV-1">
          <mxGeometry x="431" y="340" width="60" height="30" as="geometry" />
        </mxCell>
        <mxCell id="oSDlVFUqQBZmsmdfuagh-50" value="NIE" style="text;html=1;strokeColor=none;fillColor=none;align=center;verticalAlign=middle;whiteSpace=wrap;rounded=0;" vertex="1" parent="WIyWlLk6GJQsqaUBKTNV-1">
          <mxGeometry x="280" y="410" width="60" height="30" as="geometry" />
        </mxCell>
        <mxCell id="oSDlVFUqQBZmsmdfuagh-51" value="TAK" style="text;html=1;strokeColor=none;fillColor=none;align=center;verticalAlign=middle;whiteSpace=wrap;rounded=0;" vertex="1" parent="WIyWlLk6GJQsqaUBKTNV-1">
          <mxGeometry x="550" y="310" width="60" height="30" as="geometry" />
        </mxCell>
        <mxCell id="oSDlVFUqQBZmsmdfuagh-52" value="NIE" style="text;html=1;strokeColor=none;fillColor=none;align=center;verticalAlign=middle;whiteSpace=wrap;rounded=0;" vertex="1" parent="WIyWlLk6GJQsqaUBKTNV-1">
          <mxGeometry x="661" y="340" width="60" height="30" as="geometry" />
        </mxCell>
      </root>
    </mxGraphModel>
  </diagram>
</mxfile>
